# xmcd
#
# Track frame offsets: 
#        182
#        13955
#        25295
#        42000
#        55155
#        70220
#        88362
#        106787
#        118542
#        130985
#        146880
#        157882
#        172415
#        186985
#        201920
#        216087
#        230025
#        245850
#        254907
#        271407
#        288435
#        303302
#
# Disc length: 4217 seconds
#
# Revision: 2
# Processed by: cddbd v1.5.2PL0 Copyright (c) Steve Scherf et al.
# Submitted via: ExactAudioCopy v1.0b3
#
DISCID=5f107716
DTITLE=Pousette-Dart Band - Best of Pousette-Dart Band
DYEAR=1993
DGENRE=Country/Rock
TTITLE0=What Can I Say
TTITLE1=Dancer
TTITLE2=Freezing Hot
TTITLE3=There's Been a Mistake
TTITLE4=Harder
TTITLE5=Woman in My Dreams
TTITLE6=All Your Lonely Hours
TTITLE7=Halo
TTITLE8=Smile on Me
TTITLE9=County Line
TTITLE10=Fall on Me
TTITLE11=Amnesia
TTITLE12=I Think I Know
TTITLE13=May You Dance
TTITLE14=I Don't Know Why
TTITLE15=Winterness
TTITLE16=Listen to the Spirit
TTITLE17=Yaicha
TTITLE18=Stand by Me
TTITLE19=Gotta Get Far Away
TTITLE20=Cheated
TTITLE21=Hallelujah I'm a Bum
EXTD=
EXTT0=
EXTT1=
EXTT2=
EXTT3=
EXTT4=
EXTT5=
EXTT6=
EXTT7=
EXTT8=
EXTT9=
EXTT10=
EXTT11=
EXTT12=
EXTT13=
EXTT14=
EXTT15=
EXTT16=
EXTT17=
EXTT18=
EXTT19=
EXTT20=
EXTT21=
PLAYORDER=
